<?xml version="1.0" encoding="UTF-8"?>
<svg width="25px" height="25px" viewBox="0 0 25 25" version="1.1" xmlns="http://www.w3.org/2000/svg" xmlns:xlink="http://www.w3.org/1999/xlink">
    <title>Language white</title>
    <g id="VD" stroke="none" stroke-width="1" fill="none" fill-rule="evenodd">
        <g id="Icons" transform="translate(-606.000000, -186.000000)" fill="#FFFFFF" fill-rule="nonzero">
            <g id="Language-white" transform="translate(599.000000, 179.000000)">
                <path d="M19.75,7.75 C26.3777567,7.75 31.75,13.1222433 31.75,19.75 C31.75,26.3777567 26.3777567,31.75 19.75,31.75 C13.1225051,31.75 7.75,26.3772523 7.75,19.75 C7.75,13.1222433 13.1222433,7.75 19.75,7.75 Z M19.75,25.8704914 C19.2206275,25.8704914 18.6811965,25.8897956 18.1238022,25.927497 L17.8865085,25.9448439 L17.9512858,26.1959451 C18.2542968,27.3204032 18.627903,28.3847383 19.0650773,29.3668072 L19.2216042,29.70466 L19.5929805,29.7268118 L19.75,29.729346 L20.0863279,29.7181707 L20.277907,29.70466 L20.4348801,29.3666862 C20.8720195,28.3843271 21.2456156,27.3199943 21.5486867,26.1957721 L21.6130027,25.9448439 L21.3761937,25.9274964 C21.0045997,25.9023619 20.6409964,25.8854045 20.2830259,25.8768923 L19.75,25.8704914 Z M15.8294393,26.2025329 L15.4348682,26.266687 C14.5809014,26.4146105 13.7495648,26.6040638 12.9450602,26.8338488 L12.7838217,26.8822988 L13.0070233,27.0938057 C14.0342253,28.0346482 15.2469459,28.7535027 16.5695722,29.1986482 L16.7657834,29.2603686 L16.5777374,28.7500608 C16.3258335,28.0409354 16.1024087,27.3001498 15.9084386,26.5320244 L15.8294393,26.2025329 Z M23.6700719,26.2025329 L23.591415,26.5306793 C23.3980257,27.2975188 23.1746015,28.038238 22.9223317,28.7481906 L22.732617,29.2603686 L22.9299691,29.1986417 C24.2529736,28.753497 25.4656803,28.034652 26.4924646,27.0938416 L26.7134681,26.8811881 L26.5545587,26.8341642 C25.7503095,26.6046802 24.9189337,26.4152172 24.0646079,26.2669702 L23.6700719,26.2025329 Z M15.1163516,20.7599632 L9.82484088,20.7599632 L9.83160545,20.8387359 C9.99476941,22.3357404 10.4923598,23.7580687 11.2808591,25.0182737 L11.370975,25.1573374 L11.7817806,25.0271877 C12.8174204,24.7141569 13.9043213,24.4625981 15.0326282,24.2748354 L15.4351306,24.2121074 L15.3944777,23.9543916 C15.2615296,23.0496419 15.1741582,22.0973125 15.1296558,21.096459 L15.1163516,20.7599632 Z M29.6746703,20.7599632 L24.3809382,20.7599632 L24.3658363,21.1945036 C24.3216516,22.1237814 24.2399036,23.0131552 24.118678,23.8621659 L24.0632698,24.2121074 L24.4674233,24.2748038 C25.5957481,24.4625772 26.682659,24.7141469 27.7182573,25.0271855 L28.1274255,25.1562267 L28.2191451,25.0182863 C29.0076421,23.7581536 29.5052313,22.3358255 29.6684251,20.8387201 L29.6746703,20.7599632 Z M22.3571908,20.7599632 L17.1423204,20.7599632 L17.1582738,21.1314032 C17.2032682,21.998504 17.2851572,22.8293096 17.4058515,23.6230975 L17.4622102,23.9633042 L17.8537061,23.9338487 C18.2824065,23.9048992 18.7053144,23.8853661 19.1242791,23.8755606 L19.75,23.8681871 C20.3733026,23.8681871 21.0033817,23.8904313 21.6460852,23.9338546 L22.0361902,23.9633042 L22.093715,23.6232857 C22.2147107,22.8299769 22.2967076,21.9996023 22.3417436,21.131986 L22.3571908,20.7599632 Z M22.037301,15.5350962 L21.6462066,15.5661728 C21.0031129,15.609582 20.373141,15.6318129 19.75,15.6318129 C19.1267823,15.6318129 18.4967486,15.6095752 17.8540019,15.5661669 L17.4622102,15.5350962 L17.4062988,15.8767499 C17.2853176,16.6700642 17.2033268,17.5004431 17.1582933,18.3680365 L17.1423204,18.739548 L22.3571908,18.739548 L22.3417718,18.3684915 C22.2967883,17.5013474 22.2149106,16.6708121 22.0941835,15.8770164 L22.037301,15.5350962 Z M11.370975,14.3421738 L11.2808539,14.4817154 C10.4978294,15.7331027 10.0016963,17.1444313 9.83505369,18.6300682 L9.82484088,18.739548 L15.1174623,18.739548 L15.1342024,18.3054627 C15.1783878,17.376187 15.2601365,16.4868003 15.3813613,15.6377913 L15.4362414,15.286293 L15.0326462,15.2251793 C13.9043562,15.0374359 12.8174529,14.7858766 11.7817915,14.4728254 L11.370975,14.3421738 Z M28.1274255,14.3421738 L27.7191835,14.4724847 C26.6849172,14.7850376 25.5982006,15.0364773 24.4685328,15.2247582 L24.0643805,15.286293 L24.1055735,15.5456048 C24.2385418,16.4503649 24.3259147,17.4027162 24.3703973,18.4035591 L24.3820489,18.739548 L29.6746703,18.739548 L29.6683862,18.6612459 C29.5051906,17.1641513 29.0076087,15.7418028 28.2191381,14.4817041 L28.1274255,14.3421738 Z M19.8282871,9.77125316 L19.5932325,9.77318003 L19.2216042,9.79374048 L19.0650739,10.1331485 C18.6278988,11.1151976 18.254307,12.1795085 17.9512907,13.3040199 L17.8865085,13.5535565 L18.1238743,13.5724851 C18.4955053,13.5976101 18.8591097,13.6145618 19.2170477,13.6230713 L19.75,13.6294703 C20.2753695,13.6294703 20.8123575,13.6101448 21.3722295,13.5724548 L21.611892,13.5535565 L21.5485753,13.3034811 C21.2453689,12.1781256 20.8720373,11.1143721 20.4349361,10.1329151 L20.277907,9.79374048 L19.9067675,9.77318003 L19.8282871,9.77125316 L19.8282871,9.77125316 Z M22.732617,10.2380319 L22.9223092,10.7500825 C23.1742337,11.4592489 23.3976567,12.2000164 23.5915938,12.9680581 L23.6700719,13.2958675 L24.0655424,13.2329385 C24.9201038,13.0845671 25.7514374,12.8949818 26.5554199,12.6653029 L26.7145788,12.6172124 L26.4931052,12.4056196 C25.4661123,11.4650584 24.2534473,10.7464763 22.9305919,10.3013856 L22.732617,10.2380319 Z M16.7657834,10.2391426 L16.5699191,10.3013489 C15.2467468,10.7464272 14.0340027,11.4649684 13.0069344,12.4055598 L12.7838217,12.6172124 L12.9446929,12.6652966 C13.7488031,12.8950055 14.5801931,13.0845734 15.4349686,13.232918 L15.8294393,13.2958675 L15.908616,12.9692218 C16.1020361,12.2023279 16.3254614,11.46161 16.5777117,10.7517048 L16.7657834,10.2391426 Z"></path>
            </g>
        </g>
    </g>
</svg>